<?xml version="1.0" encoding="utf-8"?>
<svg xmlns="http://www.w3.org/2000/svg" viewBox="0 0 24 24" width="192" height="192">
  <path d="M5,13c0,0.365-1.268,1.001-1.268,1.001C3.386,14.598,2.74,15,2,15c-1.105,0-2-0.895-2-2s0.895-2,2-2c0.74,0,1.386,0.402,1.732,0.999C3.732,11.999,5,12.635,5,13z" opacity=".35" fill="#FFFFFF" />
  <path d="M24,13c0,1.105-0.895,2-2,2c-0.74,0-1.386-0.402-1.732-0.999c0,0-1.268-0.636-1.268-1.001c0-0.365,1.268-1.001,1.268-1.001C20.614,11.402,21.26,11,22,11C23.105,11,24,11.895,24,13z" opacity=".35" fill="#FFFFFF" />
  <path d="M20,13c0,0.36,0.1,0.71,0.27,1h-1.52l-1.79,6.27C16.84,20.71,16.44,21,16,21h-0.05c-0.46-0.02-0.85-0.36-0.93-0.82l-2.16-11.5l-1.89,7.56c-0.11,0.44-0.49,0.75-0.94,0.76c-0.46,0.01-0.85-0.27-0.98-0.7l-1.53-4.88l-0.56,1.87C6.83,13.71,6.44,14,6,14H3.73C3.9,13.71,4,13.36,4,13s-0.1-0.71-0.27-1h1.53l1.28-4.29C6.67,7.29,7.05,7,7.49,7C7.5,7,7.5,7,7.5,7c0.44,0,0.82,0.28,0.95,0.7l1.44,4.61l2.14-8.55C12.14,3.31,12.54,3,13,3h0.03c0.47,0.01,0.87,0.35,0.95,0.82l2.22,11.83l0.84-2.92C17.16,12.3,17.55,12,18,12h2.27C20.1,12.29,20,12.64,20,13z" fill="#FFFFFF" />
</svg>