<?xml version="1.0" encoding="utf-8"?>
<svg xmlns="http://www.w3.org/2000/svg" viewBox="0 0 24 24" width="192" height="192">
  <path d="M11.935,16.504c-1.809-2.695-1.809-6.312,0-9.008c0.563-0.841,1.241-1.527,1.989-2.069c0.786-0.569,0.608-1.81-0.323-2.084C10.079,2.3,6.047,3.449,3.651,6.796c-2.202,3.077-2.201,7.332,0,10.408c2.395,3.347,6.427,4.495,9.951,3.454c0.93-0.276,1.108-1.515,0.323-2.084C13.175,18.032,12.5,17.345,11.935,16.504" opacity=".35" fill="#FFFFFF" />
  <path fill-rule="evenodd" d="M17.943,8.27C18.031,8.104,18.204,8,18.392,8s0.361,0.104,0.449,0.27l0.851,1.605c0.01,0.019,0.024,0.035,0.04,0.047c0.017,0.012,0.037,0.02,0.057,0.024l1.79,0.313c0.185,0.032,0.337,0.165,0.395,0.343c0.058,0.179,0.012,0.375-0.118,0.51l-1.264,1.306c-0.015,0.015-0.025,0.033-0.032,0.053c-0.007,0.02-0.008,0.041-0.005,0.062l0.254,1.799c0.027,0.186-0.052,0.372-0.204,0.482c-0.152,0.11-0.353,0.128-0.522,0.045l-1.632-0.798c-0.019-0.009-0.04-0.014-0.061-0.014c-0.021,0-0.041,0.005-0.06,0.014l-1.632,0.798c-0.169,0.083-0.369,0.065-0.522-0.045c-0.152-0.111-0.231-0.296-0.204-0.482l0.255-1.799c0.003-0.021,0.001-0.042-0.005-0.062c-0.007-0.02-0.018-0.038-0.032-0.053l-1.264-1.306c-0.131-0.135-0.176-0.331-0.118-0.51c0.058-0.179,0.21-0.311,0.395-0.343l1.79-0.313c0.021-0.004,0.04-0.012,0.057-0.024c0.017-0.012,0.031-0.028,0.041-0.047L17.943,8.27z" clip-rule="evenodd" fill="#FFFFFF" />
</svg>