<?xml version="1.0" encoding="utf-8"?>
<svg xmlns="http://www.w3.org/2000/svg" viewBox="0 0 24 24" width="192" height="192">
  <path d="M5,4C3.895,4,3,4.895,3,6v12c0,1.105,0.895,2,2,2s2-0.895,2-2V6C7,4.895,6.105,4,5,4z" opacity=".35" fill="#FFFFFF" />
  <path d="M21.2,10.4l-8-6C12.847,4.135,12.425,4,12,4c-0.305,0-0.611,0.07-0.894,0.211C10.428,4.55,10,5.242,10,6v12c0,0.758,0.428,1.45,1.106,1.789C11.389,19.93,11.695,20,12,20c0.425,0,0.847-0.135,1.2-0.4l8-6c0.504-0.378,0.8-0.97,0.8-1.6S21.704,10.778,21.2,10.4z" fill="#FFFFFF" />
</svg>