<?xml version="1.0" encoding="utf-8"?>
<svg xmlns="http://www.w3.org/2000/svg" viewBox="0 0 24 24" width="192" height="192">
  <path d="M17,22H7c-1.657,0-3-1.343-3-3V5c0-1.657,1.343-3,3-3h10c1.657,0,3,1.343,3,3v14C20,20.657,18.657,22,17,22z" opacity=".35" fill="#FFFFFF" />
  <path d="M13.594,10h7c1.105,0,2,0.895,2,2s-0.895,2-2,2h-7V10z" fill="#FFFFFF" />
  <path d="M14.594,15.305c0,0.617-0.744,0.927-1.182,0.493l-3.114-3.085c-0.396-0.393-0.396-1.033,0-1.426l3.114-3.085c0.438-0.434,1.182-0.124,1.182,0.493V15.305z" fill="#FFFFFF" />
</svg>